<svg width="50" height="50" viewBox="0 0 50 50" fill="none" xmlns="http://www.w3.org/2000/svg">
<circle cx="25" cy="25" r="25" fill="#6C63FF"/>
<path fill-rule="evenodd" clip-rule="evenodd" d="M23.5 34.8916C23.5 35.2891 23.658 35.6704 23.9393 35.9514C24.2206 36.2325 24.6022 36.3904 25 36.3904C25.3978 36.3904 25.7794 36.2325 26.0607 35.9514C26.342 35.6704 26.5 35.2891 26.5 34.8916V25.8988H35.5C35.8978 25.8988 36.2794 25.7409 36.5607 25.4598C36.842 25.1787 37 24.7975 37 24.4C37 24.0025 36.842 23.6213 36.5607 23.3402C36.2794 23.0591 35.8978 22.9012 35.5 22.9012H26.5V13.9084C26.5 13.5108 26.342 13.1296 26.0607 12.8485C25.7794 12.5675 25.3978 12.4095 25 12.4095C24.6022 12.4095 24.2206 12.5675 23.9393 12.8485C23.658 13.1296 23.5 13.5108 23.5 13.9084V22.9012H14.5C14.1022 22.9012 13.7206 23.0591 13.4393 23.3402C13.158 23.6213 13 24.0025 13 24.4C13 24.7975 13.158 25.1787 13.4393 25.4598C13.7206 25.7409 14.1022 25.8988 14.5 25.8988H23.5V34.8916Z" fill="#F7F7F7"/>
</svg>
